<?xml version="1.0" encoding="UTF-8"?>
<svg width="54px" height="54px" viewBox="0 0 54 54" version="1.1" xmlns="http://www.w3.org/2000/svg" xmlns:xlink="http://www.w3.org/1999/xlink">
    <title>6662C9E5-1DF9-44CB-865C-57C0E37A71CB</title>
    <g id="Page-1" stroke="none" stroke-width="1" fill="none" fill-rule="evenodd">
        <g id="Desktop-HD-Copy-18" transform="translate(-73.000000, -885.000000)">
            <g id="Help--Menu" transform="translate(53.000000, 679.000000)">
                <g id="Group-7-Copy" transform="translate(20.000000, 206.000000)">
                    <circle id="Oval-Copy-2" stroke="#1F1F1F" stroke-width="1.08" cx="27" cy="27" r="26.46"></circle>
                    <path d="M38.5957025,27.5751955 C38.5957025,28.688195 37.6856615,29.5937454 36.5659714,29.5937454 L35.7601694,29.5937454 C35.3724943,29.5937454 35.057435,29.90725 35.057435,30.2930122 L35.0820307,33.1844802 L31.7967476,29.9014228 L31.7967476,24.8457243 C31.7967476,22.9612004 30.2565881,21.4286408 28.362719,21.4286408 L23.6075499,21.4286408 L23.6075499,19.4194144 C23.6075499,18.3064148 24.5175909,17.4008644 25.6384522,17.4008644 L36.5659714,17.4008644 C37.6856615,17.4008644 38.5957025,18.3064148 38.5957025,19.4194144 L38.5957025,27.5751955 Z M30.3924501,33.0015054 C30.3924501,34.1145049 29.4824091,35.0212208 28.362719,35.0212208 L22.8029191,35.0212208 C22.6155232,35.0212208 22.4374972,35.0958093 22.3051489,35.2251736 L18.942565,38.6201136 L18.942565,35.7204875 C18.942565,35.3347254 18.6275057,35.0212208 18.2398306,35.0212208 L17.4351998,35.0212208 C16.3155097,35.0212208 15.4042975,34.1145049 15.4042975,33.0015054 L15.4042975,24.8457243 C15.4042975,23.7327247 16.3155097,22.8271743 17.4351998,22.8271743 L28.362719,22.8271743 C29.4824091,22.8271743 30.3924501,23.7327247 30.3924501,24.8457243 L30.3924501,33.0015054 Z M36.5659714,16 L25.6384522,16 C23.7434119,16 22.2032524,17.5348905 22.2032524,19.4194144 L22.2032524,21.4286408 L17.4351998,21.4286408 C15.5401595,21.4286408 14,22.9612004 14,24.8457243 L14,33.0015054 C14,34.8860292 15.5401595,36.4209197 17.4351998,36.4209197 L17.5382675,36.4209197 L17.5382675,38.6201136 C17.5382675,39.179527 17.8732375,39.6806682 18.393261,39.8939445 C18.5654309,39.9650367 18.7469706,40 18.9249966,40 C19.2857336,40 19.6371008,39.8601467 19.9041398,39.5955907 L23.0945538,36.4209197 L28.362719,36.4209197 C30.2565881,36.4209197 31.7967476,34.8860292 31.7967476,33.0015054 L31.7967476,31.883844 L34.0958602,34.1809353 C34.3628992,34.4384985 34.7130952,34.5736901 35.0691473,34.5736901 C35.2530294,34.5736901 35.4404252,34.5375613 35.6161088,34.4629729 C36.1384747,34.2427038 36.4629037,33.755548 36.4629037,33.1879765 L36.4629037,30.9934444 L36.5659714,30.9934444 C38.4598405,30.9934444 40,29.4597193 40,27.5751955 L40,19.4194144 C40,17.5348905 38.4598405,16 36.5659714,16 L36.5659714,16 Z" id="Conversation" fill="#1F1F1F"></path>
                </g>
            </g>
        </g>
    </g>
</svg>