<?xml version="1.0" encoding="UTF-8"?>
<svg width="238px" height="193px" viewBox="0 0 238 193" version="1.1" xmlns="http://www.w3.org/2000/svg" xmlns:xlink="http://www.w3.org/1999/xlink">
    <title>1CBEB32E-D10A-433E-B67F-D47E25165771</title>
    <g id="Page-1" stroke="none" stroke-width="1" fill="none" fill-rule="evenodd">
        <g id="Desktop-HD-Copy-25" transform="translate(-840.000000, -317.000000)">
            <g id="Group" transform="translate(841.025940, 318.854837)">
                <circle id="Oval" stroke="#999999" stroke-width="3" cx="116.97406" cy="115.145163" r="73.5"></circle>
                <path d="M153.321706,111.345585 C153.321706,116.797335 149.090383,121.28116 143.730453,121.721125 C144.656294,118.95508 145.157472,115.993919 145.157472,112.917985 L145.157472,100.84762 L151.791391,100.84762 C152.633064,100.84762 153.321706,101.532436 153.321706,102.377936 L153.321706,111.345585 Z M140.570351,112.917985 C140.570351,116.357369 139.820496,119.620767 138.473819,122.558973 C138.362871,122.727308 138.274878,122.90712 138.213665,123.106061 C134.433785,130.8112 126.50675,136.129047 117.359289,136.129047 C108.208001,136.129047 100.284792,130.8112 96.5010863,123.106061 C96.4398737,122.90712 96.3518806,122.727308 96.2447585,122.558973 C94.8980807,119.620767 94.1444003,116.357369 94.1444003,112.917985 L94.1444003,91.6657262 C94.1444003,90.5868537 95.0243318,89.710748 96.1032043,89.710748 L138.611547,89.710748 C139.69042,89.710748 140.570351,90.5868537 140.570351,91.6657262 L140.570351,112.917985 Z M81.3930452,111.345585 L81.3930452,102.377936 C81.3930452,101.532436 82.0816872,100.84762 82.9271866,100.84762 L89.5572791,100.84762 L89.5572791,112.917985 C89.5572791,115.993919 90.0584575,118.95508 90.9881242,121.721125 C85.6243679,121.28116 81.3930452,116.797335 81.3930452,111.345585 L81.3930452,111.345585 Z M151.791391,96.2566731 L145.157472,96.2566731 L145.157472,91.6657262 C145.157472,88.0541813 142.223092,85.119801 138.611547,85.119801 L96.1032043,85.119801 C92.4954852,85.119801 89.5572791,88.0541813 89.5572791,91.6657262 L89.5572791,96.2566731 L82.9271866,96.2566731 C79.5528406,96.2566731 76.805924,98.9997639 76.805924,102.377936 L76.805924,111.345585 C76.805924,119.620767 83.554616,126.35033 91.8527526,126.35033 C92.2391573,126.35033 92.6217362,126.335027 93.0004893,126.308247 C97.3886694,134.258236 105.556729,139.843888 115.063815,140.624349 L115.063815,153.984005 L104.607933,153.984005 C103.341597,153.984005 102.31246,155.009316 102.31246,156.279478 C102.31246,157.545815 103.341597,158.574952 104.607933,158.574952 L130.110644,158.574952 C131.37698,158.574952 132.402291,157.545815 132.402291,156.279478 C132.402291,155.009316 131.37698,153.984005 130.110644,153.984005 L119.650936,153.984005 L119.650936,140.624349 C129.161848,139.843888 137.326082,134.258236 141.714262,126.308247 C142.093015,126.335027 142.475594,126.35033 142.865825,126.35033 C151.163961,126.35033 157.908827,119.620767 157.908827,111.345585 L157.908827,102.377936 C157.908827,98.9997639 155.161911,96.2566731 151.791391,96.2566731 L151.791391,96.2566731 Z" id="Trophy" fill="#999999"></path>
                <path d="M123.020088,109.199945 L119.878458,108.721424 L118.474949,105.743314 C118.099441,104.94578 116.850224,104.94578 116.474716,105.743314 L115.069348,108.721424 L111.929577,109.199945 C111.509454,109.264137 111.159971,109.571479 111.027985,109.993589 C110.897859,110.417644 111.007537,110.880603 111.310546,111.18989 L113.584045,113.508575 L113.046808,116.780412 C112.976168,117.220028 113.147191,117.66159 113.491097,117.922247 C113.835004,118.182905 114.290447,118.217919 114.665955,118.011727 L117.474833,116.465288 L120.281851,118.011727 C120.445439,118.101206 120.623898,118.144001 120.802357,118.144001 C121.032868,118.144001 121.263378,118.070083 121.456709,117.922247 C121.800615,117.66159 121.973497,117.220028 121.900998,116.780412 L121.363761,113.508575 L123.63726,111.18989 C123.942128,110.880603 124.049947,110.417644 123.919821,109.993589 C123.787835,109.571479 123.440211,109.264137 123.020088,109.199945 L123.020088,109.199945 Z" id="Path" stroke="#979797" stroke-width="3"></path>
                <path d="M-4.54747351e-13,79.2630155 C5.11862839,77.7557628 8.48109073,78.5491758 10.087387,81.6432546 C12.4968315,86.2843727 17.9467104,86.1393471 20.1032977,84.4600373" id="Path-3" stroke="#979797" stroke-width="2"></path>
                <path d="M17,163.151067 C13.9161551,156.790971 14.8204687,152.116965 19.7129408,149.129047 C27.0516489,144.647171 25.4439559,137.745897 22.5945385,134.721125" id="Path-4" stroke="#979797" stroke-width="2"></path>
                <path d="M89,30.1510672 C85.9161551,23.7909713 86.8204687,19.1169646 91.7129408,16.1290472 C99.0516489,11.6471711 97.4439559,4.74589692 94.5945385,1.72112542" id="Path-4-Copy" stroke="#979797" stroke-width="2"></path>
                <path d="M203,113.151067 C199.916155,106.790971 200.820469,102.116965 205.712941,99.1290472 C213.051649,94.6471711 211.443956,87.7458969 208.594539,84.7211254" id="Path-4-Copy-2" stroke="#979797" stroke-width="2"></path>
                <circle id="Oval" stroke="#979797" stroke-width="2" cx="231.97406" cy="85.1451633" r="3"></circle>
                <circle id="Oval-Copy-3" stroke="#979797" stroke-width="2" cx="145.97406" cy="25.1451633" r="3"></circle>
                <circle id="Oval-Copy-2" stroke="#979797" stroke-width="2" cx="57.97406" cy="36.1451633" r="3"></circle>
                <circle id="Oval-Copy" stroke="#979797" stroke-width="2" cx="41.97406" cy="178.145163" r="3"></circle>
                <path d="M188.036029,165.627056 C191.905542,168.180886 196.367476,169.125064 200.378733,165.627056 C204.389991,162.129047 211.242203,165.112801 211.242203,166.768599" id="Path-7" stroke="#979797" stroke-width="2"></path>
                <path d="M146.036029,1.6270557 C149.905542,4.18088584 154.367476,5.12506421 158.378733,1.6270557 C162.389991,-1.8709528 169.242203,1.112801 169.242203,2.76859861" id="Path-7-Copy-2" stroke="#979797" stroke-width="2"></path>
                <path d="M169.036029,41.6270557 C172.905542,44.1808858 177.367476,45.1250642 181.378733,41.6270557 C185.389991,38.1290472 192.242203,41.112801 192.242203,42.7685986" id="Path-7-Copy" stroke="#979797" stroke-width="2"></path>
            </g>
        </g>
    </g>
</svg>