<?xml version="1.0" encoding="UTF-8"?>
<svg width="54px" height="54px" viewBox="0 0 54 54" version="1.1" xmlns="http://www.w3.org/2000/svg" xmlns:xlink="http://www.w3.org/1999/xlink">
    <title>48F22B5C-A276-4756-836E-788822CF073A</title>
    <g id="Page-1" stroke="none" stroke-width="1" fill="none" fill-rule="evenodd">
        <g id="Desktop-HD-Copy-18" transform="translate(-73.000000, -795.000000)">
            <g id="Help--Menu" transform="translate(53.000000, 679.000000)">
                <g id="Group-7" transform="translate(20.000000, 116.000000)">
                    <circle id="Oval-Copy-2" stroke="#1F1F1F" stroke-width="1.08" cx="27" cy="27" r="26.46"></circle>
                    <path d="M32.0274731,29.2729552 C32.0274731,29.6801561 31.6975443,30.0088604 31.2915724,30.0088604 L22.7060634,30.0088604 C22.3000915,30.0088604 21.9713892,29.6801561 21.9713892,29.2729552 C21.9713892,28.8657543 22.3000915,28.53705 22.7060634,28.53705 L31.2915724,28.53705 C31.6975443,28.53705 32.0274731,28.8657543 32.0274731,29.2729552 L32.0274731,29.2729552 Z M21.9713892,24.725061 C21.9713892,24.3178602 22.3000915,23.9891558 22.7060634,23.9891558 L28.8385698,23.9891558 C29.2445417,23.9891558 29.5744706,24.3178602 29.5744706,24.725061 C29.5744706,25.1322619 29.2445417,25.4609662 28.8385698,25.4609662 L22.7060634,25.4609662 C22.3000915,25.4609662 21.9713892,25.1322619 21.9713892,24.725061 L21.9713892,24.725061 Z M37.8570337,37.3237581 C37.8840167,37.5347176 37.7797641,37.6733131 37.715986,37.7370915 C37.6497549,37.80087 37.5099338,37.9014437 37.3002021,37.873234 L33.0246186,37.2513941 C32.6468563,37.1962012 32.2605084,37.2575266 31.9085025,37.4267848 C30.0221435,38.3245892 27.9052023,38.6839562 25.7723166,38.4656377 C20.7792299,37.950504 15.988516,33.1107008 15.5224455,28.1077719 C15.2109142,24.7728949 16.2865558,21.5937844 18.5519036,19.1554852 C20.7350759,16.8054946 23.8050086,15.4698266 27.0049504,15.4698266 C27.0809935,15.4698266 27.1545836,15.4710531 27.2294001,15.4722796 C33.3152995,15.5900245 38.3819762,20.6358811 38.5254769,26.7193641 C38.5684044,28.5198789 38.2065865,30.2517091 37.4535147,31.8633415 C37.2928431,32.2030844 37.2327445,32.5747165 37.2805781,32.9377631 L37.8570337,37.3237581 Z M38.7401146,32.7464277 C38.7290761,32.6617986 38.7437941,32.5771695 38.7854951,32.4900874 C39.636687,30.6674955 40.0451119,28.7136672 39.9960519,26.6850219 C39.8341537,19.8239324 34.1211108,14.1341587 27.2576097,14.0004692 C23.5695203,13.9698065 19.9918161,15.4428434 17.473809,18.1546541 C14.9570284,20.8640117 13.7109031,24.5410847 14.0567765,28.2439144 C14.5829455,33.8895338 19.9881366,39.3487239 25.621457,39.9288625 C26.0777154,39.9766963 26.5339739,40 26.9877794,40 C28.9195189,39.9987735 30.8169164,39.5768545 32.5426036,38.7550937 C32.6296852,38.7121659 32.7216728,38.6962213 32.8148869,38.7084864 L37.0892439,39.3303263 C37.693909,39.4161819 38.3083861,39.2199405 38.7487001,38.7845299 C39.191467,38.3478928 39.3975193,37.7456771 39.3153437,37.1324227 L38.7401146,32.7464277 Z" id="Message-bubble" fill="#1F1F1F"></path>
                </g>
            </g>
        </g>
    </g>
</svg>