<?xml version="1.0" encoding="UTF-8"?>
<svg width="54px" height="54px" viewBox="0 0 54 54" version="1.1" xmlns="http://www.w3.org/2000/svg" xmlns:xlink="http://www.w3.org/1999/xlink">
    <title>A8A127AF-EA2D-46A3-AB9B-7084900881AE</title>
    <g id="Page-1" stroke="none" stroke-width="1" fill="none" fill-rule="evenodd">
        <g id="Desktop-HD-Copy-18" transform="translate(-73.000000, -703.000000)">
            <g id="Help--Menu" transform="translate(53.000000, 679.000000)">
                <g id="Group-6" transform="translate(20.000000, 24.000000)">
                    <circle id="Oval" stroke="#1F1F1F" stroke-width="1.08" cx="27" cy="27" r="26.46"></circle>
                    <path d="M23.1456508,34.1880465 C23.1456508,33.7453966 23.5185405,33.3856599 23.9773751,33.3856599 L30.0226249,33.3856599 C30.4814595,33.3856599 30.8543492,33.7453966 30.8543492,34.1880465 C30.8543492,34.6306964 30.4814595,34.9904331 30.0226249,34.9904331 L23.9773751,34.9904331 C23.5185405,34.9904331 23.1456508,34.6306964 23.1456508,34.1880465 L23.1456508,34.1880465 Z M32.5136393,34.1880465 C32.5136393,33.7199877 32.9073221,33.3401913 33.3924947,33.3401913 C33.876281,33.3401913 34.2685777,33.7199877 34.2685777,34.1880465 C34.2685777,34.6561053 33.876281,35.0345643 33.3924947,35.0345643 C32.9073221,35.0345643 32.5136393,34.6561053 32.5136393,34.1880465 L32.5136393,34.1880465 Z M19.7300361,34.1880465 C19.7300361,33.7199877 20.1223328,33.3401913 20.6075053,33.3401913 C21.0926779,33.3401913 21.4863607,33.7199877 21.4863607,34.1880465 C21.4863607,34.6561053 21.0926779,35.0345643 20.6075053,35.0345643 C20.1223328,35.0345643 19.7300361,34.6561053 19.7300361,34.1880465 L19.7300361,34.1880465 Z M37.8741027,22.0078181 L37.8741027,24.8322189 L37.8741027,30.4181669 L27.8310312,30.4181669 L27.8310312,19.840037 L37.8741027,19.840037 L37.8741027,22.0078181 Z M37.8741027,34.5638309 C37.8741027,35.6778109 36.932868,36.5858451 35.7781573,36.5858451 L35.6450814,36.5858451 L32.3569979,36.5858451 L21.6430021,36.5858451 L18.3549186,36.5858451 L18.2204565,36.5858451 C17.0657458,36.5858451 16.1258973,35.6778109 16.1258973,34.5638309 L16.1258973,32.0216027 L37.8741027,32.0216027 L37.8741027,34.5638309 Z M16.1258973,24.8322189 L16.1258973,22.0078181 L16.1258973,19.840037 L26.1689688,19.840037 L26.1689688,30.4181669 L16.1258973,30.4181669 L16.1258973,24.8322189 Z M19.6842913,15.6047732 L34.3157087,15.6047732 C35.990247,15.6047732 37.3889301,16.730789 37.7659785,18.2352639 L16.2340215,18.2352639 C16.6096836,16.730789 18.009753,15.6047732 19.6842913,15.6047732 L19.6842913,15.6047732 Z M40.1682757,21.2054315 L39.5361652,21.2054315 L39.5361652,19.0376504 C39.5361652,16.2600555 37.1948611,14 34.3157087,14 L19.6842913,14 C16.8051389,14 14.4624486,16.2600555 14.4624486,19.0376504 L14.4624486,21.2054315 L13.8303381,21.2054315 C13.3715035,21.2054315 13,21.5651682 13,22.0078181 L13,24.8322189 C13,25.2748688 13.3715035,25.6346055 13.8303381,25.6346055 L14.4624486,25.6346055 L14.4624486,34.5638309 C14.4624486,36.3330933 15.7835041,37.8041354 17.5231942,38.1210781 L17.5231942,39.1976134 C17.5231942,39.6402633 17.896084,40 18.3549186,40 L21.6430021,40 C22.1018367,40 22.4747265,39.6402633 22.4747265,39.1976134 L22.4747265,38.1892809 L31.5252735,38.1892809 L31.5252735,39.1976134 C31.5252735,39.6402633 31.8967771,40 32.3569979,40 L35.6450814,40 C36.103916,40 36.4754196,39.6402633 36.4754196,39.1976134 L36.4754196,38.1210781 C38.2151097,37.8041354 39.5361652,36.3330933 39.5361652,34.5638309 L39.5361652,25.6346055 L40.1682757,25.6346055 C40.6271103,25.6346055 41,25.2748688 41,24.8322189 L41,22.0078181 C41,21.5651682 40.6271103,21.2054315 40.1682757,21.2054315 L40.1682757,21.2054315 Z" id="Bus" fill="#1F1F1F"></path>
                </g>
            </g>
        </g>
    </g>
</svg>